<?xml version="1.0" standalone="no"?>
<!DOCTYPE svg PUBLIC "-//W3C//DTD SVG 20010904//EN"
 "http://www.w3.org/TR/2001/REC-SVG-20010904/DTD/svg10.dtd">
<svg version="1.0" xmlns="http://www.w3.org/2000/svg"
 width="367.000000pt" height="367.000000pt" viewBox="0 0 367.000000 367.000000"
 preserveAspectRatio="xMidYMid meet">
<metadata>
Created by potrace 1.15, written by Peter Selinger 2001-2017
</metadata>
<g transform="translate(0.000000,367.000000) scale(0.100000,-0.100000)"
fill="#8C8C8C" stroke="none">
<path d="M523 3635 c-243 -66 -398 -211 -479 -447 l-24 -72 0 -1281 c0 -1249
1 -1283 20 -1339 65 -189 170 -316 330 -400 146 -76 35 -71 1460 -71 1403 0
1300 -5 1446 65 123 59 230 164 289 282 82 163 76 40 73 1484 l-3 1289 -29 70
c-91 218 -231 347 -450 414 -68 21 -76 21 -1325 20 -1040 0 -1265 -3 -1308
-14z m1830 -684 c220 -62 332 -156 393 -330 20 -57 24 -85 24 -203 0 -116 -3
-146 -22 -195 -41 -112 -108 -191 -219 -260 -33 -20 -56 -39 -52 -43 4 -4 28
-15 53 -24 159 -62 280 -192 331 -356 29 -92 36 -253 15 -350 -27 -125 -74
-211 -169 -304 -85 -84 -156 -130 -264 -167 -151 -52 -144 -52 -845 -56 l-658
-4 0 1161 0 1161 668 -4 c653 -3 669 -4 745 -26z"/>
<path d="M1450 2321 l0 -282 313 3 c297 3 315 4 369 26 65 26 119 80 139 138
7 22 13 75 13 119 -1 89 -20 139 -71 186 -71 67 -127 76 -483 85 l-280 7 0
-282z"/>
<path d="M1450 1375 l0 -327 348 4 c317 4 351 6 394 24 78 32 133 77 159 130
21 43 24 63 24 164 0 109 -2 118 -30 169 -34 61 -83 101 -159 130 -45 17 -92
20 -393 26 l-343 8 0 -328z"/>
</g>
</svg>
