<?xml version="1.0" standalone="no"?>
<!DOCTYPE svg PUBLIC "-//W3C//DTD SVG 20010904//EN"
 "http://www.w3.org/TR/2001/REC-SVG-20010904/DTD/svg10.dtd">
<svg version="1.0" xmlns="http://www.w3.org/2000/svg"
 width="225.000000pt" height="225.000000pt" viewBox="0 0 225.000000 225.000000"
 preserveAspectRatio="xMidYMid meet">
<metadata>
Created by potrace 1.15, written by Peter Selinger 2001-2017
</metadata>
<g transform="translate(0.000000,225.000000) scale(0.100000,-0.100000)"
fill="#8c8c8c" stroke="none">
<path d="M1290 2131 c-11 -17 -33 -56 -48 -88 -24 -52 -27 -69 -27 -169 0
-110 0 -111 43 -197 74 -149 210 -261 368 -302 66 -17 188 -19 252 -5 99 23
193 89 254 179 l32 46 -44 -37 c-66 -57 -137 -80 -245 -80 -171 1 -297 53
-415 172 -140 139 -196 306 -156 458 8 28 13 52 11 52 -2 0 -13 -13 -25 -29z"/>
<path d="M797 1983 c-102 -147 -127 -215 -134 -373 -5 -97 -2 -129 16 -200 74
-294 293 -524 596 -625 96 -32 263 -43 385 -26 234 35 436 172 535 364 l38 72
-53 -53 c-230 -231 -579 -268 -910 -95 -314 163 -512 506 -470 816 6 45 22
108 35 140 12 31 21 57 20 57 -2 0 -28 -35 -58 -77z"/>
<path d="M214 1776 c-86 -110 -126 -180 -159 -275 -92 -271 -34 -608 151 -888
63 -95 216 -256 304 -320 154 -111 338 -193 490 -218 122 -19 332 -19 445 0
112 20 243 69 347 131 137 82 286 241 358 384 l23 45 -82 -78 c-183 -171 -461
-254 -759 -226 -187 17 -336 63 -488 151 -391 223 -634 610 -634 1008 0 105
23 232 56 314 13 33 23 60 21 61 -1 1 -34 -39 -73 -89z"/>
</g>
</svg>
